<?xml version="1.0" encoding="UTF-8"?>
<svg width="97px" height="100px" viewBox="0 0 97 100" version="1.1" xmlns="http://www.w3.org/2000/svg" xmlns:xlink="http://www.w3.org/1999/xlink">
    <title>Artboard Copy</title>
    <g id="Artboard-Copy" stroke="none" stroke-width="1" fill="none" fill-rule="evenodd">
        <g id="Rectangle-2" transform="translate(8.000000, 7.000000)" fill="#FFFFFF">
            <rect id="Rectangle" x="0" y="0" width="85" height="88"></rect>
        </g>
        <g id="align-left" transform="translate(25.320675, 26.879816)" fill="#000000" fill-rule="nonzero">
            <path d="M34.3925245,0.026674436 C31.6405245,0.069344436 28.5099245,0.122674436 21.8325245,0.240004436 C20.2219245,0.272004436 18.1419245,0.320004436 17.2192245,0.346674436 C16.2965245,0.378674436 13.9659245,0.437334436 12.0459245,0.480004436 C10.1259245,0.522674436 7.72592452,0.597334436 6.71252452,0.640004436 C5.69922452,0.688004436 4.09392452,0.746674436 3.13922452,0.773334436 C2.18452452,0.805334436 1.28852452,0.848004436 1.14452452,0.880004436 C0.387224525,1.03467444 0.168554525,1.12000444 0.0725545248,1.31198444 C-0.0447754752,1.53598444 -0.0234454752,1.72798444 0.163224525,2.09598444 C0.435224525,2.62398444 0.541924525,2.67198444 1.65122452,2.79998444 C3.30452452,2.98138444 3.86992452,3.01338444 8.87252452,3.19998444 C14.6379245,3.41328444 20.5632245,3.61068444 24.9792245,3.73328444 C26.5952245,3.77598444 30.5045245,3.88798444 33.6725245,3.97328444 C36.8405245,4.05868444 39.8912245,4.14928444 40.4459245,4.16528444 C41.6352245,4.20798444 42.2379245,4.14928444 43.2992245,3.88798444 C44.8565245,3.50928444 45.9125245,3.07198444 46.3819245,2.60268444 C46.7339245,2.25068444 46.7445245,2.11738444 46.4405245,1.82938444 C45.9499245,1.35998444 43.8699245,0.496004436 42.6112245,0.240004436 C41.5339245,0.021344436 39.0859245,-0.042655564 34.3925245,0.026674436 Z" id="Path"></path>
            <path d="M21.6992245,20.9175844 C17.1819245,21.0028844 12.1152245,21.3228844 6.71252452,21.8668844 C4.44052452,22.0962844 4.49392452,22.0908844 3.03252452,22.1868844 C1.66722452,22.2828844 1.26722452,22.3308844 0.643224525,22.4908844 C-0.103435475,22.6828844 -0.167435475,22.9175844 0.285924525,23.7175844 C0.659224525,24.3735844 0.931224525,24.5495844 1.75252452,24.6615844 C3.21922452,24.8695844 3.75792452,24.8908844 10.3392245,24.9335844 C13.9019245,24.9602844 17.0379245,24.9922844 17.2992245,25.0082844 C17.5659245,25.0242844 18.5099245,25.0668844 19.4059245,25.0935844 C21.2619245,25.1575844 24.6912245,25.3122844 27.6192245,25.4668844 C30.1739245,25.6002844 38.4139245,25.9895844 39.5659245,26.0268844 C40.0512245,26.0428844 40.5952245,26.0695844 40.7765245,26.0802844 C42.3019245,26.1975844 45.1339245,25.3548844 46.2912245,24.4375844 C46.5205245,24.2562844 46.7659245,23.8348844 46.7659245,23.6215844 C46.7659245,23.2055844 46.2752245,22.8055844 45.0059245,22.1708844 C42.9792245,21.1522844 42.3819245,21.0348844 38.6592245,20.9335844 C37.0645245,20.8908844 23.7899245,20.8748844 21.6992245,20.9175844 Z" id="Path"></path>
            <path d="M19.4058245,41.7174844 C14.5951245,41.8294844 11.2832245,41.9734844 7.37922452,42.2401844 C4.11522452,42.4641844 1.64052452,42.7307844 0.952524525,42.9334844 C0.819224525,42.9707844 0.595224525,43.0347844 0.456524525,43.0721844 C0.125854525,43.1521844 0.0191945248,43.3334844 0.0618545248,43.7387844 C0.0991945248,44.1227844 0.680524525,45.1574844 0.952524525,45.3334844 C1.05382452,45.3974844 1.18182452,45.5041844 1.24052452,45.5628844 C1.44322452,45.7921844 1.96052452,45.8934844 4.25922452,46.1601844 C9.47522452,46.7521844 14.7818245,47.1201844 18.2058245,47.1201844 C20.6271245,47.1201844 21.3951245,47.0348844 21.9658245,46.7094844 C22.3391245,46.4961844 22.7818245,46.0908844 23.1018245,45.6641844 C23.4165245,45.2588844 23.8858245,44.4054844 23.8858245,44.2454844 C23.8858245,44.1974844 23.9125245,44.1281844 23.9445245,44.0961844 C24.0351245,44.0054844 24.0671245,43.2747844 23.9925245,43.0454844 C23.8965245,42.7574844 23.4591245,42.3414844 23.1498245,42.2454844 C23.0111245,42.2081844 22.7551245,42.0854844 22.5791245,41.9787844 C22.4085245,41.8721844 22.1791245,41.7601844 22.0725245,41.7334844 C21.9018245,41.6854844 20.9365245,41.6801844 19.4058245,41.7174844 Z" id="Path"></path>
        </g>
        <g id="square" fill="#3DC2BB" fill-rule="nonzero">
            <path d="M93.0348213,0.146895772 C92.8670716,0.220333821 92.2273414,0.314762602 91.6188799,0.356724392 C90.8322458,0.409191383 90.4231961,0.493134634 90.1820927,0.629525204 C89.9933006,0.734439514 89.5632084,0.881335286 89.2066664,0.954773336 L88.5773592,1.08067838 L88.5984016,7.01912734 C88.6192474,10.2822319 88.5773592,14.5104773 88.5040055,16.4201026 C88.4304552,18.3191048 88.3256362,23.2608776 88.2627055,27.3842677 C88.0949558,38.8731027 87.9584748,45.5356433 87.7592597,52.198184 C87.6229753,57.045528 87.5808904,61.5045338 87.5808904,74.1056611 L87.5808904,89.9171702 L57.7938101,89.8646442 C18.0215897,89.7912652 14.1513499,89.7493624 10.2706872,89.3820738 L9.0014531,89.2561688 L8.93852237,81.9536764 C8.83370337,71.3566032 8.85474584,44.3605952 8.96998773,38.9781547 C9.02249556,36.4390041 9.10646875,29.2519903 9.13793411,22.998641 L9.21128774,11.6461376 L10.1656716,11.7090901 C10.9314599,11.7616161 11.2040286,11.7405664 11.5397247,11.6042348 C11.9173091,11.4468535 12.2215398,11.436427 15.042803,11.5517088 C17.4552132,11.6567608 19.1228775,11.6567608 22.7518173,11.5517088 C25.2900889,11.4887563 29.0555097,11.383901 31.1007583,11.331375 C38.8831262,11.1216644 42.6693928,10.9536599 49.4029807,10.534042 C59.2097515,9.92556651 65.1775511,9.46384912 75.4667252,8.49851157 C79.2217231,8.14184619 79.9454265,8.04741741 80.0921337,7.89003611 C80.3438566,7.61717628 80.7110181,6.6309857 80.7110181,6.22179432 C80.7110181,5.62374538 80.3230108,5.5293166 76.6205208,5.20412748 C74.8584604,5.04674618 72.1209737,4.80536261 70.5372826,4.66903106 C65.9956506,4.27026619 58.60129,3.70371318 52.602025,3.31549285 C43.8754995,2.73843464 40.6556095,2.57056781 30.6706661,2.20333821 C19.7102965,1.79414683 18.3362434,1.76267057 15.630222,1.83610862 C13.3228276,1.88857561 12.8402275,1.87809008 12.5255739,1.74167984 C12.2109202,1.60528927 11.7495593,1.60528927 9.27421847,1.67872732 C7.6799078,1.73119431 6.25354351,1.82562309 6.09621669,1.88857561 C5.93888987,1.9410426 5.58234796,1.99348992 5.29915968,1.99348992 C5.0159714,1.99348992 4.62776747,2.05644244 4.43897529,2.14038569 C4.2501831,2.22432895 3.57898755,2.41318651 2.96010317,2.56006261 C2.33079588,2.69647285 1.73295397,2.89581594 1.62813497,2.99024472 C1.51269642,3.09515903 1.33452379,3.46238862 1.21908524,3.81911301 C0.988404785,4.55355253 0.967362322,5.59226912 0.788993039,36.8796718 C0.736681871,46.1126425 0.642285778,55.4087625 0.589777952,57.5491482 C0.526847223,59.6789107 0.432451131,64.3794967 0.369520402,67.9886434 C0.317091239,71.5979868 0.212193581,77.2847634 0.138780954,80.6316735 C-0.0604931311,89.6338839 -0.0500112317,92.2253637 0.201711682,93.0122702 C0.432451131,93.7468475 0.694596946,94.3134201 1.30305843,95.3206605 C1.54416178,95.7192286 1.90090035,96.3908533 2.10011543,96.8000447 C2.50916517,97.6184275 2.82381881,97.9855193 3.463549,98.3947107 C3.69442611,98.531239 4.10347584,98.8668546 4.37604456,99.1186647 L4.87949039,99.5803821 L6.00182059,99.5174296 C6.63112788,99.4755268 7.79534635,99.381098 8.60302292,99.2970958 C12.86127,98.8564281 23.3288134,98.8460016 38.0229418,99.2445698 C45.2391298,99.4440506 51.5007372,99.5593324 58.6327553,99.6222849 C62.4400644,99.6537611 66.9921193,99.6958606 68.7541797,99.7273369 C70.5162401,99.7588132 74.1032916,99.8111424 76.7253398,99.8426187 C79.3475845,99.874095 81.5605829,99.9161945 81.6445561,99.9476707 C81.7179098,99.9685237 84.2561814,99.9895735 87.2662368,100 C93.1921481,100 93.1921481,100 93.8006096,99.4334273 C94.1675744,99.0978117 95.3947236,96.5167584 95.3947236,96.0969437 C95.3947236,95.8976597 95.4786968,95.6562761 95.6149812,95.5199445 C95.9717198,95.1318029 96.3072192,93.4635611 96.4330807,91.3861279 C96.5799846,89.0462614 96.7268885,85.1853047 96.8842153,79.4774783 C97.051965,73.9168035 97.0309226,17.1755329 96.8631728,15.1610522 C96.601027,11.9400472 96.5485192,10.7439493 96.4855885,6.16926831 L96.4122348,1.28004114 L96.1709348,1.17510716 C96.0450734,1.11215464 95.8562812,0.923297075 95.7514622,0.755430245 C95.4576544,0.241324553 94.9018974,0 94.0731783,0 C93.6747482,0.0104855292 93.2131906,0.0734380496 93.0348213,0.146895772 Z" id="Path"></path>
        </g>
    </g>
</svg>