<?xml version="1.0" encoding="UTF-8"?>
<svg width="283px" height="36px" viewBox="0 0 283 36" version="1.1" xmlns="http://www.w3.org/2000/svg" xmlns:xlink="http://www.w3.org/1999/xlink">
    <title>wrbn-logo-name</title>
    <defs>
        <linearGradient x1="0%" y1="5.12465374%" x2="100%" y2="94.8753463%" id="linearGradient-1">
            <stop stop-color="#3FCEAF" offset="0%"></stop>
            <stop stop-color="#42C5BE" offset="100%"></stop>
        </linearGradient>
        <linearGradient x1="0%" y1="7.98611111%" x2="100%" y2="92.0138889%" id="linearGradient-2">
            <stop stop-color="#3FCEAF" offset="0%"></stop>
            <stop stop-color="#42C5BE" offset="100%"></stop>
        </linearGradient>
    </defs>
    <g id="wrbn-logo-name" stroke="none" stroke-width="1" fill="none" fill-rule="evenodd">
        <path d="M105.950545,32.7 L107.385545,32.7 C108.410545,32.7 109.025545,32.208 109.312545,31.265 L114.806545,13.348 L120.300545,31.265 C120.587545,32.208 121.243545,32.7 122.227545,32.7 L123.662545,32.7 C124.646545,32.7 125.302545,32.208 125.589545,31.265 L133.502545,5.968 C133.871545,4.779 133.297545,4 132.067545,4 L130.140545,4 C129.156545,4 128.500545,4.492 128.213545,5.435 L122.637545,23.598 L117.348545,6.378 C117.061545,5.435 116.405545,4.943 115.421545,4.943 L114.232545,4.943 C113.248545,4.943 112.592545,5.435 112.305545,6.378 L106.975545,23.598 L101.399545,5.435 C101.112545,4.492 100.497545,4 99.4725451,4 L97.5455451,4 C96.3155451,4 95.7415451,4.779 96.1105451,5.968 L104.023545,31.265 C104.310545,32.208 104.966545,32.7 105.950545,32.7 Z M162.979545,33.151 C156.009545,33.151 154.123545,25.525 153.836545,22.204 L149.080545,22.204 L149.080545,30.978 C149.080545,32.085 148.465545,32.7 147.358545,32.7 L145.390545,32.7 C144.283545,32.7 143.668545,32.085 143.668545,30.978 L143.668545,5.722 C143.668545,4.615 144.283545,4 145.390545,4 L156.214545,4 C162.077545,4 165.357545,8.264 165.357545,13.307 C165.357545,17.571 162.979545,20.974 158.838545,21.917 C159.125545,24.951 160.888545,28.723 163.676545,28.723 C164.496545,28.723 165.111545,28.6 165.644545,28.313 C166.669545,27.903 167.243545,28.067 167.735545,29.051 L168.022545,29.625 C168.473545,30.609 168.391545,31.429 167.489545,31.962 C166.177545,32.782 164.578545,33.151 162.979545,33.151 Z M149.080545,18.104 L155.353545,18.104 C158.100545,18.104 159.822545,16.095 159.822545,13.348 C159.822545,10.56 158.059545,8.551 155.353545,8.551 L149.080545,8.551 L149.080545,18.104 Z M178.885545,32.7 L180.853545,32.7 C181.960545,32.7 182.575545,32.085 182.575545,30.978 L182.575545,5.722 C182.575545,4.615 181.960545,4 180.853545,4 L178.885545,4 C177.778545,4 177.163545,4.615 177.163545,5.722 L177.163545,30.978 C177.163545,32.085 177.778545,32.7 178.885545,32.7 Z M210.453545,17.899 C214.676545,18.432 216.808545,21.589 216.808545,24.828 C216.808545,29.584 212.831545,32.7 206.886545,32.7 L196.472545,32.7 C195.365545,32.7 194.750545,32.085 194.750545,30.978 L194.750545,5.722 C194.750545,4.615 195.365545,4 196.472545,4 L205.615545,4 C211.314545,4 215.455545,6.87 215.455545,11.626 C215.455545,14.291 213.979545,16.874 210.453545,17.899 Z M205.369545,8.346 L200.162545,8.346 L200.162545,16.382 L204.098545,16.382 C208.362545,16.382 210.043545,14.291 210.043545,12.159 C210.043545,9.699 207.952545,8.346 205.369545,8.346 Z M206.763545,28.272 C209.551545,28.272 211.396545,26.714 211.396545,24.5 C211.396545,22.286 209.510545,20.113 205.041545,20.113 L200.162545,20.113 L200.162545,28.272 L206.763545,28.272 Z M242.677545,17.899 C246.900545,18.432 249.032545,21.589 249.032545,24.828 C249.032545,29.584 245.055545,32.7 239.110545,32.7 L228.696545,32.7 C227.589545,32.7 226.974545,32.085 226.974545,30.978 L226.974545,5.722 C226.974545,4.615 227.589545,4 228.696545,4 L237.839545,4 C243.538545,4 247.679545,6.87 247.679545,11.626 C247.679545,14.291 246.203545,16.874 242.677545,17.899 Z M237.593545,8.346 L232.386545,8.346 L232.386545,16.382 L236.322545,16.382 C240.586545,16.382 242.267545,14.291 242.267545,12.159 C242.267545,9.699 240.176545,8.346 237.593545,8.346 Z M238.987545,28.272 C241.775545,28.272 243.620545,26.714 243.620545,24.5 C243.620545,22.286 241.734545,20.113 237.265545,20.113 L232.386545,20.113 L232.386545,28.272 L238.987545,28.272 Z M260.920545,32.7 L262.888545,32.7 C263.995545,32.7 264.610545,32.085 264.610545,30.978 L264.610545,13.676 L277.771545,31.634 C278.345545,32.372 279.001545,32.7 279.903545,32.7 L280.928545,32.7 C282.035545,32.7 282.691545,32.085 282.691545,30.978 L282.691545,5.722 C282.691545,4.615 282.035545,4 280.928545,4 L278.960545,4 C277.853545,4 277.238545,4.615 277.238545,5.722 L277.238545,22.901 L264.118545,5.066 C263.585545,4.328 262.888545,4 261.986545,4 L260.920545,4 C259.813545,4 259.198545,4.615 259.198545,5.722 L259.198545,30.978 C259.198545,32.085 259.813545,32.7 260.920545,32.7 Z" id="WRIBBN" fill="#000000"></path>
        <g id="WRBN---Logo">
            <path d="M0,9.37087368 L19.4212749,32.9297316 C22.867435,37.024067 29.183845,37.0232939 32.6287132,32.9281853 L38,26.4790981 L18.5353187,3.10476486 C15.0989767,-1.02152733 8.75569607,-1.03724801 5.29894272,3.0717772 L0,9.37087368 Z" id="Fill-1" fill="url(#linearGradient-1)"></path>
            <path d="M77,9.35075936 L57.5461864,32.9274125 C54.0942525,37.0248405 47.7672599,37.0240668 44.31662,32.925865 L39,26.6116941 L58.4380265,3.12969421 C61.8733969,-1.02060555 68.2449039,-1.04717036 71.7152129,3.0742434 L77,9.35075936 Z" id="Fill-4" fill="url(#linearGradient-1)"></path>
            <path d="M26,12.3701141 L43.3983215,32.9790887 C46.8617368,37.0095512 53.2035013,37.0065034 56.6627635,32.9727391 L62,26.7488761 L44.0817639,5.84985243 C40.8239264,2.05026085 34.8499697,2.05000687 31.5918726,5.84934447 L26,12.3701141 Z" id="Fill-7" fill="url(#linearGradient-2)"></path>
            <polygon id="Fill-9" fill="#000000" opacity="0.200000018" points="28 14 36.3680275 28 38 26.024442"></polygon>
            <polygon id="Fill-9" fill="#000000" opacity="0.200000018" transform="translate(56.000000, 18.000000) rotate(-180.000000) translate(-56.000000, -18.000000) " points="51 11 59.3680275 25 61 23.024442"></polygon>
        </g>
    </g>
</svg>